# Blender v2.82 (sub 7) OBJ File: ''
# www.blender.org
o Cube_Cube.002
v 0.450000 -0.450000 -0.500000
v 0.500000 -0.450000 -0.450000
v 0.450000 -0.500000 -0.450000
v 0.474967 -0.450000 -0.493320
v 0.450000 -0.474967 -0.493320
v 0.473911 -0.473911 -0.486832
v 0.493320 -0.474967 -0.450000
v 0.493320 -0.450000 -0.474967
v 0.486832 -0.473911 -0.473911
v 0.450000 -0.493320 -0.474967
v 0.474967 -0.493320 -0.450000
v 0.473911 -0.486832 -0.473911
v 0.500000 -0.450000 0.450000
v 0.450000 -0.450000 0.500000
v 0.450000 -0.500000 0.450000
v 0.493320 -0.450000 0.474967
v 0.493320 -0.474967 0.450000
v 0.486832 -0.473911 0.473911
v 0.450000 -0.474967 0.493320
v 0.474967 -0.450000 0.493320
v 0.473911 -0.473911 0.486832
v 0.474967 -0.493320 0.450000
v 0.450000 -0.493320 0.474967
v 0.473911 -0.486832 0.473911
v -0.450000 -0.450000 -0.500000
v -0.450000 -0.500000 -0.450000
v -0.500000 -0.450000 -0.450000
v -0.450000 -0.474967 -0.493320
v -0.474967 -0.450000 -0.493320
v -0.473911 -0.473911 -0.486832
v -0.474967 -0.493320 -0.450000
v -0.450000 -0.493320 -0.474967
v -0.473911 -0.486832 -0.473911
v -0.493320 -0.450000 -0.474967
v -0.493320 -0.474967 -0.450000
v -0.486832 -0.473911 -0.473911
v -0.450000 -0.450000 0.500000
v -0.500000 -0.450000 0.450000
v -0.450000 -0.500000 0.450000
v -0.474967 -0.450000 0.493320
v -0.450000 -0.474967 0.493320
v -0.473911 -0.473911 0.486832
v -0.493320 -0.474967 0.450000
v -0.493320 -0.450000 0.474967
v -0.486832 -0.473911 0.473911
v -0.450000 -0.493320 0.474967
v -0.474967 -0.493320 0.450000
v -0.473911 -0.486832 0.473911
v 0.450000 0.450000 -0.500000
v 0.450000 0.500000 -0.450000
v 0.500000 0.450000 -0.450000
v 0.450000 0.474967 -0.493320
v 0.474967 0.450000 -0.493320
v 0.473911 0.473911 -0.486832
v 0.474967 0.493320 -0.450000
v 0.450000 0.493320 -0.474967
v 0.473911 0.486832 -0.473911
v 0.493320 0.450000 -0.474967
v 0.493320 0.474967 -0.450000
v 0.486832 0.473911 -0.473911
v 0.450000 0.450000 0.500000
v 0.500000 0.450000 0.450000
v 0.450000 0.500000 0.450000
v 0.474967 0.450000 0.493320
v 0.450000 0.474967 0.493320
v 0.473911 0.473911 0.486832
v 0.493320 0.474967 0.450000
v 0.493320 0.450000 0.474967
v 0.486832 0.473911 0.473911
v 0.450000 0.493320 0.474967
v 0.474967 0.493320 0.450000
v 0.473911 0.486832 0.473911
v -0.450000 0.450000 -0.500000
v -0.500000 0.450000 -0.450000
v -0.450000 0.500000 -0.450000
v -0.474967 0.450000 -0.493320
v -0.450000 0.474967 -0.493320
v -0.473911 0.473911 -0.486832
v -0.493320 0.474967 -0.450000
v -0.493320 0.450000 -0.474967
v -0.486832 0.473911 -0.473911
v -0.450000 0.493320 -0.474967
v -0.474967 0.493320 -0.450000
v -0.473911 0.486832 -0.473911
v -0.450000 0.450000 0.500000
v -0.450000 0.500000 0.450000
v -0.500000 0.450000 0.450000
v -0.450000 0.474967 0.493320
v -0.474967 0.450000 0.493320
v -0.473911 0.473911 0.486832
v -0.474967 0.493320 0.450000
v -0.450000 0.493320 0.474967
v -0.473911 0.486832 0.473911
v -0.493320 0.450000 0.474967
v -0.493320 0.474967 0.450000
v -0.486832 0.473911 0.473911
vt 0.950000 0.050000
vt 0.950000 0.950000
vt 0.050000 0.950000
vt 0.050000 0.050000
vt 0.950000 0.050000
vt 0.950000 0.950000
vt 0.050000 0.950000
vt 0.050000 0.050000
vt 0.950000 0.950000
vt 0.050000 0.950000
vt 0.050000 0.050000
vt 0.950000 0.050000
vt 0.050000 0.050000
vt 0.050000 0.950000
vt 0.950000 0.950000
vt 0.950000 0.050000
vt 0.050000 0.050000
vt 0.050000 0.950000
vt 0.950000 0.950000
vt 0.950000 0.050000
vt 0.050000 0.050000
vt 0.050000 0.025033
vt 0.026089 0.026089
vt 0.025033 0.050000
vt 0.050000 0.006680
vt 0.026089 0.013168
vt 0.025033 0.050000
vt 0.026089 0.026089
vt 0.050000 0.025033
vt 0.006680 0.050000
vt 0.013168 0.026089
vt 0.050000 0.025033
vt 0.026089 0.026089
vt 0.025033 0.050000
vt 0.006680 0.050000
vt 0.050000 0.974967
vt 0.026089 0.973911
vt 0.025033 0.950000
vt 0.050000 0.006680
vt 0.050000 0.025033
vt 0.026089 0.026089
vt 0.026089 0.013168
vt 0.025033 0.050000
vt 0.006680 0.050000
vt 0.013168 0.026089
vt 0.025033 0.950000
vt 0.026089 0.973911
vt 0.050000 0.974967
vt 0.006680 0.950000
vt 0.013168 0.973911
vt 0.050000 0.950000
vt 0.025033 0.950000
vt 0.026089 0.973911
vt 0.050000 0.974967
vt 0.006680 0.950000
vt 0.013168 0.973911
vt 0.974967 0.050000
vt 0.973911 0.026089
vt 0.950000 0.025033
vt 0.006680 0.050000
vt 0.025033 0.050000
vt 0.026089 0.026089
vt 0.013168 0.026089
vt 0.050000 0.025033
vt 0.050000 0.993320
vt 0.026089 0.986832
vt 0.050000 0.974967
vt 0.026089 0.973911
vt 0.025033 0.950000
vt 0.050000 0.993320
vt 0.026089 0.986832
vt 0.025033 0.950000
vt 0.026089 0.973911
vt 0.050000 0.974967
vt 0.006680 0.950000
vt 0.013168 0.973911
vt 0.950000 0.974967
vt 0.973911 0.973911
vt 0.974967 0.950000
vt 0.006680 0.950000
vt 0.950000 0.050000
vt 0.974967 0.050000
vt 0.973911 0.026089
vt 0.950000 0.025033
vt 0.993320 0.050000
vt 0.986832 0.026089
vt 0.025033 0.050000
vt 0.026089 0.026089
vt 0.050000 0.025033
vt 0.993320 0.050000
vt 0.974967 0.050000
vt 0.973911 0.026089
vt 0.950000 0.025033
vt 0.950000 0.006680
vt 0.973911 0.013168
vt 0.950000 0.025033
vt 0.973911 0.026089
vt 0.974967 0.050000
vt 0.950000 0.006680
vt 0.973911 0.013168
vt 0.974967 0.950000
vt 0.973911 0.973911
vt 0.950000 0.974967
vt 0.993320 0.950000
vt 0.986832 0.973911
vt 0.050000 0.974967
vt 0.026089 0.973911
vt 0.025033 0.950000
vt 0.993320 0.050000
vt 0.986832 0.026089
vt 0.950000 0.950000
vt 0.950000 0.974967
vt 0.973911 0.973911
vt 0.974967 0.950000
vt 0.950000 0.993320
vt 0.973911 0.986832
vt 0.974967 0.050000
vt 0.973911 0.026089
vt 0.950000 0.025033
vt 0.993320 0.050000
vt 0.986832 0.026089
vt 0.950000 0.025033
vt 0.973911 0.026089
vt 0.974967 0.050000
vt 0.993320 0.950000
vt 0.986832 0.973911
vt 0.974967 0.950000
vt 0.973911 0.973911
vt 0.950000 0.974967
vt 0.993320 0.950000
vt 0.986832 0.973911
vt 0.974967 0.950000
vt 0.973911 0.973911
vt 0.950000 0.974967
vt 0.993320 0.950000
vt 0.974967 0.950000
vt 0.973911 0.973911
vt 0.950000 0.974967
vt 0.950000 0.993320
vt 0.973911 0.986832
vn 0.9831 0.1296 -0.1296
vn 0.9831 0.1296 0.1296
vn 0.9831 -0.1296 0.1296
vn 0.9831 -0.1296 -0.1296
vn -0.1296 0.9831 -0.1296
vn -0.1296 0.9831 0.1296
vn 0.1296 0.9831 0.1296
vn 0.1296 0.9831 -0.1296
vn -0.1296 0.1296 0.9831
vn -0.1296 -0.1296 0.9831
vn 0.1296 -0.1296 0.9831
vn 0.1296 0.1296 0.9831
vn 0.1296 -0.9831 -0.1296
vn 0.1296 -0.9831 0.1296
vn -0.1296 -0.9831 0.1296
vn -0.1296 -0.9831 -0.1296
vn -0.9831 -0.1296 -0.1296
vn -0.9831 -0.1296 0.1296
vn -0.9831 0.1296 0.1296
vn -0.9831 0.1296 -0.1296
vn 0.1296 -0.1296 -0.9831
vn 0.4915 -0.1216 -0.8623
vn 0.4473 -0.4473 -0.7744
vn 0.1216 -0.4915 -0.8623
vn 0.8623 -0.1216 -0.4915
vn 0.7744 -0.4473 -0.4473
vn 0.8623 -0.4915 -0.1216
vn 0.4915 -0.8623 -0.1216
vn 0.4473 -0.7744 -0.4473
vn 0.1216 -0.8623 -0.4915
vn 0.8623 -0.1216 0.4915
vn 0.7744 -0.4473 0.4473
vn 0.8623 -0.4915 0.1216
vn 0.4915 -0.1216 0.8623
vn 0.4473 -0.4473 0.7744
vn 0.1216 -0.4915 0.8623
vn 0.1216 -0.8623 0.4915
vn 0.4473 -0.7744 0.4473
vn 0.4915 -0.8623 0.1216
vn -0.1296 -0.1296 -0.9831
vn -0.1216 -0.4915 -0.8623
vn -0.4473 -0.4473 -0.7744
vn -0.4915 -0.1216 -0.8623
vn -0.1216 -0.8623 -0.4915
vn -0.4473 -0.7744 -0.4473
vn -0.4915 -0.8623 -0.1216
vn -0.8623 -0.4915 -0.1216
vn -0.7744 -0.4473 -0.4473
vn -0.8623 -0.1216 -0.4915
vn -0.4915 -0.1216 0.8623
vn -0.4473 -0.4473 0.7744
vn -0.1216 -0.4915 0.8623
vn -0.8623 -0.1216 0.4915
vn -0.7744 -0.4473 0.4473
vn -0.8623 -0.4915 0.1216
vn -0.4915 -0.8623 0.1216
vn -0.4473 -0.7744 0.4473
vn -0.1216 -0.8623 0.4915
vn 0.1296 0.1296 -0.9831
vn 0.1216 0.4915 -0.8623
vn 0.4473 0.4473 -0.7744
vn 0.4915 0.1216 -0.8623
vn 0.1216 0.8623 -0.4915
vn 0.4473 0.7744 -0.4473
vn 0.4915 0.8623 -0.1216
vn 0.8623 0.4915 -0.1216
vn 0.7744 0.4473 -0.4473
vn 0.8623 0.1216 -0.4915
vn 0.4915 0.1216 0.8623
vn 0.4473 0.4473 0.7744
vn 0.1216 0.4915 0.8623
vn 0.8623 0.1216 0.4915
vn 0.7744 0.4473 0.4473
vn 0.8623 0.4915 0.1216
vn 0.4915 0.8623 0.1216
vn 0.4473 0.7744 0.4473
vn 0.1216 0.8623 0.4915
vn -0.1296 0.1296 -0.9831
vn -0.4915 0.1216 -0.8623
vn -0.4473 0.4473 -0.7744
vn -0.1216 0.4915 -0.8623
vn -0.8623 0.1216 -0.4915
vn -0.7744 0.4473 -0.4473
vn -0.8623 0.4915 -0.1216
vn -0.4915 0.8623 -0.1216
vn -0.4473 0.7744 -0.4473
vn -0.1216 0.8623 -0.4915
vn -0.1216 0.4915 0.8623
vn -0.4473 0.4473 0.7744
vn -0.4915 0.1216 0.8623
vn -0.1216 0.8623 0.4915
vn -0.4473 0.7744 0.4473
vn -0.4915 0.8623 0.1216
vn -0.8623 0.4915 0.1216
vn -0.7744 0.4473 0.4473
vn -0.8623 0.1216 0.4915
s 1
f 51/1/1 62/2/2 13/3/3 2/4/4
f 75/5/5 86/6/6 63/7/7 50/8/8
f 85/9/9 37/10/10 14/11/11 61/12/12
f 3/13/13 15/14/14 39/15/15 26/16/16
f 27/17/17 38/18/18 87/19/19 74/20/20
f 1/21/21 4/22/22 6/23/23 5/24/24
f 4/22/22 8/25/25 9/26/26 6/23/23
f 2/4/4 7/27/27 9/28/26 8/29/25
f 7/27/27 11/30/28 12/31/29 9/28/26
f 3/13/13 10/32/30 12/33/29 11/34/28
f 10/35/30 5/24/24 6/23/23 12/31/29
f 6/23/23 9/26/26 12/31/29
f 13/3/3 16/36/31 18/37/32 17/38/33
f 16/39/31 20/40/34 21/41/35 18/42/32
f 14/11/11 19/43/36 21/41/35 20/40/34
f 19/43/36 23/44/37 24/45/38 21/41/35
f 15/14/14 22/46/39 24/47/38 23/48/37
f 22/49/39 17/38/33 18/37/32 24/50/38
f 18/42/32 21/41/35 24/45/38
f 25/51/40 28/52/41 30/53/42 29/54/43
f 28/52/41 32/55/44 33/56/45 30/53/42
f 26/16/16 31/57/46 33/58/45 32/59/44
f 31/60/46 35/61/47 36/62/48 33/63/45
f 27/17/17 34/64/49 36/62/48 35/61/47
f 34/65/49 29/54/43 30/53/42 36/66/48
f 30/53/42 33/56/45 36/66/48
f 37/10/10 40/67/50 42/68/51 41/69/52
f 40/67/50 44/70/53 45/71/54 42/68/51
f 38/18/18 43/72/55 45/73/54 44/74/53
f 43/72/55 47/75/56 48/76/57 45/73/54
f 39/15/15 46/77/58 48/78/57 47/79/56
f 46/80/58 41/69/52 42/68/51 48/76/57
f 42/68/51 45/71/54 48/76/57
f 49/81/59 52/82/60 54/83/61 53/84/62
f 52/82/60 56/85/63 57/86/64 54/83/61
f 50/8/8 55/87/65 57/88/64 56/89/63
f 55/90/65 59/91/66 60/92/67 57/86/64
f 51/1/1 58/93/68 60/92/67 59/91/66
f 58/94/68 53/84/62 54/83/61 60/95/67
f 54/83/61 57/86/64 60/95/67
f 61/12/12 64/96/69 66/97/70 65/98/71
f 64/96/69 68/99/72 69/100/73 66/97/70
f 62/2/2 67/101/74 69/102/73 68/103/72
f 67/101/74 71/104/75 72/105/76 69/102/73
f 63/7/7 70/106/77 72/107/76 71/108/75
f 70/109/77 65/98/71 66/97/70 72/110/76
f 66/97/70 69/100/73 72/110/76
f 73/111/78 76/112/79 78/113/80 77/114/81
f 76/112/79 80/115/82 81/116/83 78/113/80
f 74/20/20 79/117/84 81/118/83 80/119/82
f 79/117/84 83/120/85 84/121/86 81/118/83
f 75/5/5 82/122/87 84/123/86 83/124/85
f 82/125/87 77/114/81 78/113/80 84/126/86
f 78/113/80 81/116/83 84/126/86
f 85/9/9 88/127/88 90/128/89 89/129/90
f 88/127/88 92/130/91 93/131/92 90/128/89
f 86/6/6 91/132/93 93/133/92 92/134/91
f 91/135/93 95/136/94 96/137/95 93/131/92
f 87/19/19 94/138/96 96/137/95 95/136/94
f 94/139/96 89/129/90 90/128/89 96/140/95
f 90/128/89 93/131/92 96/140/95
f 25/51/40 1/21/21 5/24/24 28/52/41
f 28/52/41 5/24/24 10/35/30 32/55/44
f 32/59/44 10/32/30 3/13/13 26/16/16
f 2/4/4 13/3/3 17/38/33 7/27/27
f 7/27/27 17/38/33 22/49/39 11/30/28
f 11/34/28 22/46/39 15/14/14 3/13/13
f 14/11/11 37/10/10 41/69/52 19/43/36
f 19/43/36 41/69/52 46/80/58 23/44/37
f 23/48/37 46/77/58 39/15/15 15/14/14
f 38/18/18 27/17/17 35/61/47 43/72/55
f 43/72/55 35/61/47 31/60/46 47/75/56
f 47/79/56 31/57/46 26/16/16 39/15/15
f 73/111/78 25/51/40 29/54/43 76/112/79
f 76/112/79 29/54/43 34/65/49 80/115/82
f 80/119/82 34/64/49 27/17/17 74/20/20
f 37/10/10 85/9/9 89/129/90 40/67/50
f 40/67/50 89/129/90 94/139/96 44/70/53
f 44/74/53 94/138/96 87/19/19 38/18/18
f 86/6/6 75/5/5 83/124/85 91/132/93
f 91/135/93 83/120/85 79/117/84 95/136/94
f 95/136/94 79/117/84 74/20/20 87/19/19
f 49/81/59 73/111/78 77/114/81 52/82/60
f 52/82/60 77/114/81 82/125/87 56/85/63
f 56/89/63 82/122/87 75/5/5 50/8/8
f 85/9/9 61/12/12 65/98/71 88/127/88
f 88/127/88 65/98/71 70/109/77 92/130/91
f 92/134/91 70/106/77 63/7/7 86/6/6
f 62/2/2 51/1/1 59/91/66 67/101/74
f 67/101/74 59/91/66 55/90/65 71/104/75
f 71/108/75 55/87/65 50/8/8 63/7/7
f 1/21/21 49/81/59 53/84/62 4/22/22
f 4/22/22 53/84/62 58/94/68 8/25/25
f 8/29/25 58/93/68 51/1/1 2/4/4
f 61/12/12 14/11/11 20/40/34 64/96/69
f 64/96/69 20/40/34 16/39/31 68/99/72
f 68/103/72 16/36/31 13/3/3 62/2/2
f 25/51/40 73/111/78 49/81/59 1/21/21
