# Blender v2.82 (sub 7) OBJ File: ''
# www.blender.org
mtllib block.mtl
o Cube.001
v -0.500000 -0.450000 -0.450000
v -0.500000 -0.450000 0.450000
v -0.500000 0.450000 0.450000
v -0.500000 0.450000 -0.450000
v -0.450000 0.450000 -0.500000
v 0.450000 0.450000 -0.500000
v 0.450000 -0.450000 -0.500000
v -0.450000 -0.450000 -0.500000
v -0.450000 0.500000 0.450000
v 0.450000 0.500000 0.450000
v 0.450000 0.500000 -0.450000
v -0.450000 0.500000 -0.450000
v 0.500000 -0.450000 0.450000
v 0.500000 -0.450000 -0.450000
v 0.500000 0.450000 -0.450000
v 0.500000 0.450000 0.450000
v -0.450000 -0.450000 0.500000
v 0.450000 -0.450000 0.500000
v 0.450000 0.450000 0.500000
v -0.450000 0.450000 0.500000
v 0.450000 -0.500000 0.450000
v -0.450000 -0.500000 0.450000
v 0.450000 -0.500000 -0.450000
v -0.450000 -0.500000 -0.450000
vt 0.050000 0.950000
vt 0.950000 0.950000
vt 0.950000 0.050000
vt 0.050000 0.050000
vt 0.050000 0.050000
vt 0.050000 0.950000
vt 0.950000 0.950000
vt 0.950000 0.050000
vt 0.950000 0.050000
vt 0.950000 0.950000
vt 0.050000 0.950000
vt 0.050000 0.050000
vt 0.950000 0.950000
vt 0.050000 0.950000
vt 0.050000 0.050000
vt 0.950000 0.050000
vt 0.950000 0.050000
vt 0.950000 0.950000
vt 0.050000 0.950000
vt 0.050000 0.050000
vt 0.950000 1.000000
vt 1.000000 0.950000
vt 0.950000 1.000000
vt 1.000000 0.950000
vt 1.000000 0.050000
vt 0.950000 0.000000
vt 1.000000 0.050000
vt 0.950000 0.000000
vt 0.050000 1.000000
vt 0.000000 0.950000
vt 0.000000 0.950000
vt 0.050000 1.000000
vt 0.000000 0.050000
vt 0.050000 0.000000
vt 0.050000 0.000000
vt 0.000000 0.050000
vt 1.000000 0.050000
vt 0.950000 0.050000
vt 0.950000 0.950000
vt 0.000000 0.950000
vt 1.000000 0.950000
vt 0.050000 0.950000
vt 0.050000 0.050000
vt 0.000000 0.050000
vn -1.0000 0.0000 0.0000
vn -0.0000 0.0000 -1.0000
vn 0.0000 1.0000 0.0000
vn 1.0000 0.0000 -0.0000
vn 0.0000 0.0000 1.0000
vn 0.5774 -0.5774 0.5773
vn -0.5774 -0.5774 0.5774
vn 0.5774 0.5774 0.5773
vn -0.5774 0.5774 0.5774
vn 0.5774 -0.5774 -0.5774
vn -0.5774 -0.5774 -0.5773
vn 0.5774 0.5774 -0.5774
vn -0.5774 0.5774 -0.5773
vn -0.7071 0.0000 -0.7071
vn -0.7071 -0.7071 0.0000
vn 0.0000 -0.7071 0.7071
vn -0.0000 0.7071 -0.7071
vn 0.0000 0.7071 0.7071
vn -0.0000 -0.7071 -0.7071
vn 0.7071 0.7071 -0.0000
vn 0.7071 0.0000 0.7071
vn -0.7071 0.7071 0.0000
vn 0.7071 0.0000 -0.7071
vn 0.7071 -0.7071 -0.0000
vn -0.7071 0.0000 0.7071
vn 0.0000 -1.0000 0.0000
usemtl Default_OBJ
s 1
f 1/1/1 2/2/1 3/3/1 4/4/1
f 5/5/2 6/6/2 7/7/2 8/8/2
f 9/9/3 10/10/3 11/11/3 12/12/3
f 13/13/4 14/14/4 15/15/4 16/16/4
f 17/17/5 18/18/5 19/19/5 20/20/5
f 21/21/6 13/13/6 18/22/6
f 2/2/7 22/23/7 17/24/7
f 19/25/8 16/16/8 10/26/8
f 20/27/9 9/28/9 3/3/9
f 23/29/10 7/30/10 14/14/10
f 8/31/11 24/32/11 1/1/11
f 6/33/12 11/34/12 15/15/12
f 4/4/13 12/35/13 5/36/13
f 1/1/14 4/4/14 5/36/14 8/31/14
f 2/2/15 1/1/15 24/32/15 22/23/15
f 18/22/16 17/37/16 22/38/16 21/39/16
f 12/12/17 11/11/17 6/40/17 5/36/17
f 10/10/18 9/9/18 20/27/18 19/41/18
f 23/42/19 24/43/19 8/44/19 7/30/19
f 16/16/20 15/15/20 11/34/20 10/26/20
f 13/13/21 16/16/21 19/25/21 18/22/21
f 4/4/22 3/3/22 9/28/22 12/35/22
f 15/15/23 14/14/23 7/30/23 6/33/23
f 14/14/24 13/13/24 21/21/24 23/29/24
f 3/3/25 2/2/25 17/24/25 20/27/25
f 24/43/26 23/42/26 21/39/26 22/38/26
