# Blender v2.82 (sub 7) OBJ File: ''
# www.blender.org
o Cube_Cube.002
v -0.165832 -0.418336 -0.056383
v -0.165832 -0.418336 0.056383
v -0.225000 -0.250000 0.076500
v -0.225000 -0.250000 -0.076500
v 0.111115 -0.418314 -0.151179
v 0.150750 -0.250000 -0.205105
v 0.205105 -0.250000 -0.150750
v 0.151179 -0.418314 -0.111115
v -0.151179 -0.418314 0.111115
v -0.205105 -0.250000 0.150750
v -0.111115 0.418314 -0.151179
v -0.150750 0.250000 -0.205105
v -0.205105 0.250000 -0.150750
v -0.151179 0.418314 -0.111115
v -0.056383 0.418336 -0.165832
v 0.056383 0.418336 -0.165832
v 0.076500 0.250000 -0.225000
v -0.076500 0.250000 -0.225000
v -0.150750 -0.250000 -0.205105
v -0.111115 -0.418314 -0.151179
v -0.151179 -0.418314 -0.111115
v -0.205105 -0.250000 -0.150750
v -0.056383 -0.418336 0.165832
v -0.076500 -0.250000 0.225000
v -0.150750 -0.250000 0.205105
v -0.111115 -0.418314 0.151179
v -0.150750 0.250000 0.205105
v -0.111115 0.418314 0.151179
v -0.151179 0.418314 0.111115
v -0.205105 0.250000 0.150750
v 0.056383 -0.418336 -0.165832
v 0.076500 -0.250000 -0.225000
v 0.056383 0.418336 0.165832
v -0.056383 0.418336 0.165832
v -0.076500 0.250000 0.225000
v 0.076500 0.250000 0.225000
v 0.150750 0.250000 -0.205105
v 0.111115 0.418314 -0.151179
v 0.151179 0.418314 -0.111115
v 0.205105 0.250000 -0.150750
v 0.150750 0.250000 0.205105
v 0.111115 0.418314 0.151179
v 0.165832 0.418336 -0.056383
v 0.165832 0.418336 0.056383
v 0.225000 0.250000 0.076500
v 0.225000 0.250000 -0.076500
v 0.150750 -0.250000 0.205105
v 0.111115 -0.418314 0.151179
v 0.151179 -0.418314 0.111115
v 0.205105 -0.250000 0.150750
v 0.076500 -0.250000 0.225000
v 0.056383 -0.418336 0.165832
v -0.076500 -0.250000 -0.225000
v -0.056383 -0.418336 -0.165832
v 0.085000 0.000000 -0.250000
v -0.085000 0.000000 -0.250000
v 0.205105 0.250000 0.150750
v 0.227894 -0.000000 0.167500
v 0.250000 -0.000000 0.085000
v 0.167500 -0.000000 0.227894
v 0.085000 -0.000000 0.250000
v 0.227894 0.000000 -0.167500
v 0.250000 0.000000 -0.085000
v 0.225000 -0.250000 -0.076500
v 0.167500 0.000000 -0.227894
v -0.227894 -0.000000 0.167500
v -0.250000 -0.000000 0.085000
v -0.167500 -0.000000 0.227894
v -0.085000 -0.000000 0.250000
v -0.227894 0.000000 -0.167500
v -0.250000 0.000000 -0.085000
v -0.225000 0.250000 -0.076500
v -0.167500 0.000000 -0.227894
v -0.165832 0.418336 0.056383
v -0.225000 0.250000 0.076500
v -0.165832 0.418336 -0.056383
v 0.151179 0.418314 0.111115
v 0.165832 -0.418336 -0.056383
v 0.165832 -0.418336 0.056383
v 0.225000 -0.250000 0.076500
v 0.000000 0.500000 0.000000
v -0.035302 0.489059 -0.085124
v -0.061646 0.489056 -0.078066
v -0.047014 0.459168 -0.133265
v -0.090527 0.459157 -0.121612
v 0.000000 -0.500000 -0.000000
v -0.061646 -0.489056 -0.078066
v -0.035302 -0.489059 -0.085124
v -0.090527 -0.459157 -0.121612
v -0.047014 -0.459168 -0.133265
v -0.078066 0.489056 -0.061646
v -0.121612 0.459157 -0.090527
v -0.078066 -0.489056 -0.061646
v -0.121612 -0.459157 -0.090527
v -0.085124 0.489059 -0.035302
v -0.133265 0.459168 -0.047014
v -0.085124 -0.489059 -0.035302
v -0.133265 -0.459168 -0.047014
v -0.035302 -0.489059 0.085124
v -0.061646 -0.489056 0.078066
v -0.047014 -0.459168 0.133265
v -0.090527 -0.459157 0.121612
v -0.061646 0.489056 0.078066
v -0.035302 0.489059 0.085124
v -0.090527 0.459157 0.121612
v -0.047014 0.459168 0.133265
v -0.078066 -0.489056 0.061646
v -0.121612 -0.459157 0.090527
v -0.078066 0.489056 0.061646
v -0.121612 0.459157 0.090527
v -0.085124 -0.489059 0.035302
v -0.133265 -0.459168 0.047014
v -0.085124 0.489059 0.035302
v -0.133265 0.459168 0.047014
v 0.035302 -0.489059 -0.085124
v 0.061646 -0.489056 -0.078066
v 0.047014 -0.459168 -0.133265
v 0.090527 -0.459157 -0.121612
v 0.061646 0.489056 -0.078066
v 0.035302 0.489059 -0.085124
v 0.090527 0.459157 -0.121612
v 0.047014 0.459168 -0.133265
v 0.078066 -0.489056 -0.061646
v 0.121612 -0.459157 -0.090527
v 0.078066 0.489056 -0.061646
v 0.121612 0.459157 -0.090527
v 0.085124 -0.489059 -0.035302
v 0.133265 -0.459168 -0.047014
v 0.085124 0.489059 -0.035302
v 0.133265 0.459168 -0.047014
v 0.035302 0.489059 0.085124
v 0.061646 0.489056 0.078066
v 0.047014 0.459168 0.133265
v 0.090527 0.459157 0.121612
v 0.061646 -0.489056 0.078066
v 0.035302 -0.489059 0.085124
v 0.090527 -0.459157 0.121612
v 0.047014 -0.459168 0.133265
v 0.078066 0.489056 0.061646
v 0.121612 0.459157 0.090527
v 0.078066 -0.489056 0.061646
v 0.121612 -0.459157 0.090527
v 0.085124 0.489059 0.035302
v 0.133265 0.459168 0.047014
v 0.085124 -0.489059 0.035302
v 0.133265 -0.459168 0.047014
vt 0.457500 0.020416
vt 0.542500 0.020416
vt 0.542500 0.062500
vt 0.457500 0.062500
vt 0.351184 0.741082
vt 0.351184 0.694375
vt 0.416250 0.689342
vt 0.416250 0.732661
vt 0.583750 0.020422
vt 0.583750 0.062500
vt 0.166250 0.520422
vt 0.166250 0.562500
vt 0.125000 0.562500
vt 0.125000 0.520422
vt 0.207500 0.520416
vt 0.292500 0.520416
vt 0.292500 0.562500
vt 0.207500 0.562500
vt 0.166250 0.687500
vt 0.166250 0.729578
vt 0.125000 0.729578
vt 0.125000 0.687500
vt 0.792500 0.729584
vt 0.792500 0.687500
vt 0.833750 0.687500
vt 0.833750 0.729578
vt 0.833750 0.562500
vt 0.833750 0.520422
vt 0.875000 0.520422
vt 0.875000 0.562500
vt 0.292500 0.729584
vt 0.292500 0.687500
vt 0.707500 0.520416
vt 0.792500 0.520416
vt 0.792500 0.562500
vt 0.707500 0.562500
vt 0.351184 0.555625
vt 0.351184 0.508918
vt 0.416250 0.517339
vt 0.416250 0.560658
vt 0.648816 0.555625
vt 0.648816 0.508918
vt 0.457500 0.520416
vt 0.542500 0.520416
vt 0.542500 0.562500
vt 0.457500 0.562500
vt 0.648816 0.694375
vt 0.648816 0.741082
vt 0.583750 0.732661
vt 0.583750 0.689342
vt 0.707500 0.687500
vt 0.707500 0.729584
vt 0.207500 0.687500
vt 0.207500 0.729584
vt 0.292500 0.625000
vt 0.207500 0.625000
vt 0.583750 0.560658
vt 0.583750 0.625000
vt 0.542500 0.625000
vt 0.648816 0.625000
vt 0.707500 0.625000
vt 0.416250 0.625000
vt 0.457500 0.625000
vt 0.457500 0.687500
vt 0.351184 0.625000
vt 0.583750 0.125000
vt 0.542500 0.125000
vt 0.833750 0.625000
vt 0.875000 0.625000
vt 0.875000 0.687500
vt 0.792500 0.625000
vt 0.416250 0.187500
vt 0.416250 0.125000
vt 0.457500 0.125000
vt 0.457500 0.187500
vt 0.166250 0.625000
vt 0.125000 0.625000
vt 0.583750 0.187500
vt 0.583750 0.229578
vt 0.542500 0.229584
vt 0.542500 0.187500
vt 0.457500 0.229584
vt 0.583750 0.517339
vt 0.416250 0.229578
vt 0.875000 0.729578
vt 0.457500 0.729584
vt 0.542500 0.729584
vt 0.542500 0.687500
vt 0.416250 0.062500
vt 0.465052 0.352965
vt 0.414357 0.340890
vt 0.421695 0.314193
vt 0.375575 0.330354
vt 0.386053 0.291250
vt 0.168520 0.508936
vt 0.206685 0.508933
vt 0.467296 0.905091
vt 0.421695 0.935807
vt 0.414357 0.909110
vt 0.386053 0.958750
vt 0.375575 0.919646
vt 0.206685 0.741067
vt 0.168520 0.741064
vt 0.467296 0.344909
vt 0.438207 0.297685
vt 0.416250 0.261053
vt 0.126981 0.508866
vt 0.164269 0.508866
vt 0.438207 0.952315
vt 0.416250 0.988947
vt 0.164269 0.741134
vt 0.126981 0.741134
vt 0.464607 0.290667
vt 0.455354 0.250575
vt 0.456685 0.241067
vt 0.418520 0.241064
vt 0.475248 0.907208
vt 0.464607 0.959333
vt 0.455354 0.999425
vt 0.418520 0.008936
vt 0.456685 0.008933
vt 0.416250 0.020422
vt 0.534948 0.897035
vt 0.585643 0.909110
vt 0.578305 0.935807
vt 0.624425 0.919646
vt 0.613947 0.958750
vt 0.831480 0.741064
vt 0.793315 0.741067
vt 0.532704 0.344909
vt 0.578305 0.314193
vt 0.585643 0.340890
vt 0.613947 0.291250
vt 0.624425 0.330354
vt 0.793315 0.508933
vt 0.831480 0.508936
vt 0.532704 0.905091
vt 0.561793 0.952315
vt 0.583750 0.988947
vt 0.873019 0.741134
vt 0.835731 0.741134
vt 0.561793 0.297685
vt 0.583750 0.261053
vt 0.835731 0.508866
vt 0.873019 0.508866
vt 0.535393 0.959333
vt 0.544646 0.999425
vt 0.543315 0.008933
vt 0.581480 0.008936
vt 0.524752 0.342792
vt 0.535393 0.290667
vt 0.544646 0.250575
vt 0.581480 0.241064
vt 0.543315 0.241067
vt 0.463816 0.846453
vt 0.409541 0.834124
vt 0.412575 0.803843
vt 0.373761 0.828924
vt 0.351184 0.763750
vt 0.347955 0.753145
vt 0.293659 0.741317
vt 0.465814 0.411604
vt 0.412575 0.446157
vt 0.409541 0.415876
vt 0.351184 0.486250
vt 0.373761 0.421076
vt 0.293659 0.508683
vt 0.347955 0.496855
vt 0.465814 0.838395
vt 0.432491 0.789323
vt 0.354310 0.753466
vt 0.415822 0.744650
vt 0.432491 0.460677
vt 0.415822 0.505350
vt 0.354310 0.496534
vt 0.462637 0.785688
vt 0.457742 0.741070
vt 0.474101 0.413595
vt 0.462637 0.464312
vt 0.457742 0.508930
vt 0.536184 0.403547
vt 0.590459 0.415876
vt 0.587424 0.446157
vt 0.626239 0.421076
vt 0.648816 0.486250
vt 0.652045 0.496855
vt 0.706341 0.508683
vt 0.534186 0.838396
vt 0.587425 0.803843
vt 0.590459 0.834124
vt 0.648816 0.763750
vt 0.626239 0.828924
vt 0.706341 0.741317
vt 0.652045 0.753145
vt 0.534186 0.411604
vt 0.567509 0.460677
vt 0.645690 0.496534
vt 0.584178 0.505350
vt 0.567509 0.789322
vt 0.584178 0.744650
vt 0.645690 0.753466
vt 0.537363 0.464312
vt 0.542258 0.508930
vt 0.525899 0.836405
vt 0.537363 0.785688
vt 0.542258 0.741070
vt 0.463816 0.403547
vt 0.375000 0.417500
vt 0.375000 0.332500
vt 0.208798 0.508993
vt 0.291202 0.508993
vt 0.465052 0.897035
vt 0.375000 0.917500
vt 0.375000 0.832500
vt 0.291202 0.741007
vt 0.208798 0.741007
vt 0.524752 0.907208
vt 0.542500 1.000000
vt 0.457500 1.000000
vt 0.458798 0.008993
vt 0.541202 0.008993
vt 0.475248 0.342792
vt 0.458798 0.241007
vt 0.541202 0.241007
vt 0.474101 0.836405
vt 0.791202 0.741007
vt 0.708798 0.741007
vt 0.785302 0.750000
vt 0.714698 0.750000
vt 0.536184 0.846453
vt 0.534948 0.352965
vt 0.625000 0.332500
vt 0.625000 0.417500
vt 0.708798 0.508993
vt 0.791202 0.508993
vt 0.525899 0.413595
vn -0.8646 -0.4895 -0.1137
vn -0.8646 -0.4895 0.1137
vn -0.9664 -0.2222 0.1289
vn -0.9664 -0.2222 -0.1289
vn 0.4294 -0.5094 -0.7457
vn 0.4872 -0.2369 -0.8405
vn 0.8405 -0.2369 -0.4872
vn 0.7457 -0.5094 -0.4294
vn -0.7457 -0.5094 0.4294
vn -0.8405 -0.2369 0.4872
vn -0.4294 0.5094 -0.7457
vn -0.4872 0.2369 -0.8405
vn -0.8405 0.2369 -0.4872
vn -0.7457 0.5094 -0.4294
vn -0.1137 0.4895 -0.8646
vn 0.1137 0.4895 -0.8646
vn 0.1289 0.2222 -0.9664
vn -0.1289 0.2222 -0.9664
vn -0.4872 -0.2369 -0.8405
vn -0.4294 -0.5094 -0.7457
vn -0.7457 -0.5094 -0.4294
vn -0.8405 -0.2369 -0.4872
vn -0.1137 -0.4895 0.8646
vn -0.1289 -0.2222 0.9664
vn -0.4872 -0.2369 0.8405
vn -0.4294 -0.5094 0.7457
vn -0.4872 0.2369 0.8405
vn -0.4294 0.5094 0.7457
vn -0.7457 0.5094 0.4294
vn -0.8405 0.2369 0.4872
vn 0.1137 -0.4895 -0.8646
vn 0.1289 -0.2222 -0.9664
vn 0.1137 0.4895 0.8646
vn -0.1137 0.4895 0.8646
vn -0.1289 0.2222 0.9664
vn 0.1289 0.2222 0.9664
vn 0.4872 0.2369 -0.8405
vn 0.4294 0.5094 -0.7457
vn 0.7457 0.5094 -0.4294
vn 0.8405 0.2369 -0.4872
vn 0.4872 0.2369 0.8405
vn 0.4294 0.5094 0.7457
vn 0.8646 0.4895 -0.1137
vn 0.8646 0.4895 0.1137
vn 0.9664 0.2222 0.1289
vn 0.9664 0.2222 -0.1289
vn 0.4872 -0.2369 0.8405
vn 0.4294 -0.5094 0.7457
vn 0.7457 -0.5094 0.4294
vn 0.8405 -0.2369 0.4872
vn 0.1289 -0.2222 0.9664
vn 0.1137 -0.4895 0.8646
vn -0.1289 -0.2222 -0.9664
vn -0.1137 -0.4895 -0.8646
vn 0.1322 0.0000 -0.9912
vn -0.1322 0.0000 -0.9912
vn 0.8405 0.2369 0.4872
vn 0.8650 -0.0000 0.5017
vn 0.9912 0.0000 0.1322
vn 0.5017 -0.0000 0.8650
vn 0.1322 -0.0000 0.9912
vn 0.8650 0.0000 -0.5017
vn 0.9912 -0.0000 -0.1322
vn 0.9664 -0.2222 -0.1289
vn 0.5017 0.0000 -0.8650
vn -0.8650 -0.0000 0.5017
vn -0.9912 0.0000 0.1322
vn -0.5017 -0.0000 0.8650
vn -0.1322 -0.0000 0.9912
vn -0.8650 0.0000 -0.5017
vn -0.9912 -0.0000 -0.1322
vn -0.9664 0.2222 -0.1289
vn -0.5017 0.0000 -0.8650
vn -0.8646 0.4895 0.1137
vn -0.9664 0.2222 0.1289
vn -0.8646 0.4895 -0.1137
vn 0.7457 0.5094 0.4294
vn 0.8646 -0.4895 -0.1137
vn 0.8646 -0.4895 0.1137
vn 0.9664 -0.2222 0.1289
vn 0.0000 1.0000 0.0000
vn -0.0435 0.9393 -0.3403
vn -0.1682 0.9403 -0.2960
vn -0.0848 0.7484 -0.6578
vn -0.3217 0.7611 -0.5633
vn -0.0000 -1.0000 -0.0000
vn -0.1682 -0.9403 -0.2960
vn -0.0435 -0.9393 -0.3403
vn -0.3217 -0.7611 -0.5633
vn -0.0848 -0.7484 -0.6578
vn -0.2960 0.9403 -0.1682
vn -0.5633 0.7611 -0.3217
vn -0.2960 -0.9403 -0.1682
vn -0.5633 -0.7611 -0.3217
vn -0.3403 0.9393 -0.0435
vn -0.6578 0.7484 -0.0848
vn -0.3403 -0.9393 -0.0435
vn -0.6578 -0.7484 -0.0848
vn -0.0435 -0.9393 0.3403
vn -0.1682 -0.9403 0.2960
vn -0.0848 -0.7484 0.6578
vn -0.3217 -0.7611 0.5633
vn -0.1682 0.9403 0.2960
vn -0.0435 0.9393 0.3403
vn -0.3217 0.7611 0.5633
vn -0.0848 0.7484 0.6578
vn -0.2960 -0.9403 0.1682
vn -0.5633 -0.7611 0.3217
vn -0.2960 0.9403 0.1682
vn -0.5633 0.7611 0.3217
vn -0.3403 -0.9393 0.0435
vn -0.6578 -0.7484 0.0848
vn -0.3403 0.9393 0.0435
vn -0.6578 0.7484 0.0848
vn 0.0435 -0.9393 -0.3403
vn 0.1682 -0.9403 -0.2960
vn 0.0848 -0.7484 -0.6578
vn 0.3217 -0.7611 -0.5633
vn 0.1682 0.9403 -0.2960
vn 0.0435 0.9393 -0.3403
vn 0.3217 0.7611 -0.5633
vn 0.0848 0.7484 -0.6578
vn 0.2960 -0.9403 -0.1682
vn 0.5633 -0.7611 -0.3217
vn 0.2960 0.9403 -0.1682
vn 0.5633 0.7611 -0.3217
vn 0.3403 -0.9393 -0.0435
vn 0.6578 -0.7484 -0.0848
vn 0.3403 0.9393 -0.0435
vn 0.6578 0.7484 -0.0848
vn 0.0435 0.9393 0.3403
vn 0.1682 0.9403 0.2960
vn 0.0848 0.7484 0.6578
vn 0.3217 0.7611 0.5633
vn 0.1682 -0.9403 0.2960
vn 0.0435 -0.9393 0.3403
vn 0.3217 -0.7611 0.5633
vn 0.0848 -0.7484 0.6578
vn 0.2960 0.9403 0.1682
vn 0.5633 0.7611 0.3217
vn 0.2960 -0.9403 0.1682
vn 0.5633 -0.7611 0.3217
vn 0.3403 0.9393 0.0435
vn 0.6578 0.7484 0.0848
vn 0.3403 -0.9393 0.0435
vn 0.6578 -0.7484 0.0848
s 1
f 1/1/1 2/2/2 3/3/3 4/4/4
f 5/5/5 6/6/6 7/7/7 8/8/8
f 9/9/9 10/10/10 3/3/3 2/2/2
f 11/11/11 12/12/12 13/13/13 14/14/14
f 15/15/15 16/16/16 17/17/17 18/18/18
f 19/19/19 20/20/20 21/21/21 22/22/22
f 23/23/23 24/24/24 25/25/25 26/26/26
f 27/27/27 28/28/28 29/29/29 30/30/30
f 31/31/31 32/32/32 6/6/6 5/5/5
f 33/33/33 34/34/34 35/35/35 36/36/36
f 37/37/37 38/38/38 39/39/39 40/40/40
f 33/33/33 36/36/36 41/41/41 42/42/42
f 43/43/43 44/44/44 45/45/45 46/46/46
f 47/47/47 48/48/48 49/49/49 50/50/50
f 40/40/40 39/39/39 43/43/43 46/46/46
f 51/51/51 52/52/52 48/48/48 47/47/47
f 53/53/53 54/54/54 20/20/20 19/19/19
f 18/18/18 17/17/17 55/55/55 56/56/56
f 57/57/57 58/58/58 59/59/59 45/45/45
f 41/41/41 60/60/60 58/58/58 57/57/57
f 36/36/36 61/61/61 60/60/60 41/41/41
f 7/7/7 62/62/62 63/63/63 64/64/64
f 6/6/6 65/65/65 62/62/62 7/7/7
f 32/32/32 55/55/55 65/65/65 6/6/6
f 10/10/10 66/66/66 67/67/67 3/3/3
f 25/25/25 68/68/68 66/69/66 10/70/10
f 24/24/24 69/71/69 68/68/68 25/25/25
f 13/72/13 70/73/70 71/74/71 72/75/72
f 12/12/12 73/76/73 70/77/70 13/13/13
f 18/18/18 56/56/56 73/76/73 12/12/12
f 4/4/4 3/3/3 67/67/67 71/74/71
f 36/36/36 35/35/35 69/71/69 61/61/61
f 46/46/46 45/45/45 59/59/59 63/63/63
f 17/17/17 16/16/16 38/38/38 37/37/37
f 35/35/35 34/34/34 28/28/28 27/27/27
f 30/78/30 29/79/29 74/80/74 75/81/75
f 72/75/72 75/81/75 74/80/74 76/82/76
f 77/83/77 57/57/57 45/45/45 44/44/44
f 42/42/42 41/41/41 57/57/57 77/83/77
f 14/84/14 13/72/13 72/75/72 76/82/76
f 62/62/62 40/40/40 46/46/46 63/63/63
f 65/65/65 37/37/37 40/40/40 62/62/62
f 55/55/55 17/17/17 37/37/37 65/65/65
f 66/66/66 30/78/30 75/81/75 67/67/67
f 68/68/68 27/27/27 30/30/30 66/69/66
f 69/71/69 35/35/35 27/27/27 68/68/68
f 71/74/71 67/67/67 75/81/75 72/75/72
f 53/53/53 32/32/32 31/31/31 54/54/54
f 51/51/51 24/24/24 23/23/23 52/52/52
f 15/15/15 18/18/18 12/12/12 11/11/11
f 26/26/26 25/25/25 10/70/10 9/85/9
f 8/8/8 7/7/7 64/64/64 78/86/78
f 50/50/50 49/49/49 79/87/79 80/88/80
f 64/64/64 80/88/80 79/87/79 78/86/78
f 56/56/56 55/55/55 32/32/32 53/53/53
f 58/58/58 50/50/50 80/88/80 59/59/59
f 60/60/60 47/47/47 50/50/50 58/58/58
f 61/61/61 51/51/51 47/47/47 60/60/60
f 70/73/70 22/89/22 4/4/4 71/74/71
f 73/76/73 19/19/19 22/22/22 70/77/70
f 56/56/56 53/53/53 19/19/19 73/76/73
f 61/61/61 69/71/69 24/24/24 51/51/51
f 63/63/63 59/59/59 80/88/80 64/64/64
f 81/90/81 82/91/82 83/92/83
f 83/92/83 82/91/82 84/93/84 85/94/85
f 85/95/85 84/96/84 15/15/15 11/11/11
f 86/97/86 87/98/87 88/99/88
f 88/99/88 87/98/87 89/100/89 90/101/90
f 90/102/90 89/103/89 20/20/20 54/54/54
f 81/104/81 83/92/83 91/105/91
f 91/105/91 83/92/83 85/94/85 92/106/92
f 92/107/92 85/108/85 11/11/11 14/14/14
f 86/97/86 93/109/93 87/98/87
f 87/98/87 93/109/93 94/110/94 89/100/89
f 89/111/89 94/112/94 21/21/21 20/20/20
f 81/104/81 91/105/91 95/113/95
f 95/113/95 91/105/91 92/106/92 96/114/96
f 96/115/96 92/116/92 14/84/14 76/82/76
f 86/117/86 97/118/97 93/109/93
f 93/109/93 97/118/97 98/119/98 94/110/94
f 94/120/94 98/121/98 1/1/1 21/122/21
f 86/123/86 99/124/99 100/125/100
f 100/125/100 99/124/99 101/126/101 102/127/102
f 102/128/102 101/129/101 23/23/23 26/26/26
f 81/130/81 103/131/103 104/132/104
f 104/132/104 103/131/103 105/133/105 106/134/106
f 106/135/106 105/136/105 28/28/28 34/34/34
f 86/137/86 100/125/100 107/138/107
f 107/138/107 100/125/100 102/127/102 108/139/108
f 108/140/108 102/141/102 26/26/26 9/85/9
f 81/130/81 109/142/109 103/131/103
f 103/131/103 109/142/109 110/143/110 105/133/105
f 105/144/105 110/145/110 29/29/29 28/28/28
f 86/137/86 107/138/107 111/146/111
f 111/146/111 107/138/107 108/139/108 112/147/112
f 112/148/112 108/149/108 9/9/9 2/2/2
f 81/150/81 113/151/113 109/142/109
f 109/142/109 113/151/113 114/152/114 110/143/110
f 110/153/110 114/154/114 74/80/74 29/79/29
f 86/155/86 115/156/115 116/157/116
f 116/157/116 115/156/115 117/158/117 118/159/118
f 118/160/118 117/161/117 31/31/31 5/5/5
f 81/162/81 119/163/119 120/164/120
f 120/164/120 119/163/119 121/165/121 122/166/122
f 122/167/122 121/168/121 38/38/38 16/16/16
f 86/169/86 116/157/116 123/170/123
f 123/170/123 116/157/116 118/171/118 124/172/124
f 124/172/124 118/171/118 5/5/5 8/8/8
f 81/162/81 125/173/125 119/163/119
f 119/163/119 125/173/125 126/174/126 121/175/121
f 121/175/121 126/174/126 39/39/39 38/38/38
f 86/169/86 123/170/123 127/176/127
f 127/176/127 123/170/123 124/172/124 128/177/128
f 128/177/128 124/172/124 8/8/8 78/86/78
f 81/178/81 129/179/129 125/173/125
f 125/173/125 129/179/129 130/180/130 126/174/126
f 126/174/126 130/180/130 43/43/43 39/39/39
f 81/181/81 131/182/131 132/183/132
f 132/183/132 131/182/131 133/184/133 134/185/134
f 134/186/134 133/187/133 33/33/33 42/42/42
f 86/188/86 135/189/135 136/190/136
f 136/190/136 135/189/135 137/191/137 138/192/138
f 138/193/138 137/194/137 48/48/48 52/52/52
f 81/195/81 132/183/132 139/196/139
f 139/196/139 132/183/132 134/197/134 140/198/140
f 140/198/140 134/197/134 42/42/42 77/83/77
f 86/188/86 141/199/141 135/189/135
f 135/189/135 141/199/141 142/200/142 137/201/137
f 137/201/137 142/200/142 49/49/49 48/48/48
f 81/195/81 139/196/139 143/202/143
f 143/202/143 139/196/139 140/198/140 144/203/144
f 144/203/144 140/198/140 77/83/77 44/44/44
f 86/204/86 145/205/145 141/199/141
f 141/199/141 145/205/145 146/206/146 142/200/142
f 142/200/142 146/206/146 79/87/79 49/49/49
f 81/207/81 120/164/120 82/91/82
f 82/91/82 120/164/120 122/208/122 84/209/84
f 84/210/84 122/211/122 16/16/16 15/15/15
f 86/212/86 88/99/88 115/156/115
f 115/156/115 88/99/88 90/213/90 117/214/117
f 117/215/117 90/216/90 54/54/54 31/31/31
f 86/217/86 111/146/111 97/118/97
f 97/118/97 111/146/111 112/218/112 98/219/98
f 98/220/98 112/221/112 2/2/2 1/1/1
f 81/222/81 95/113/95 113/151/113
f 113/151/113 95/113/95 96/223/96 114/224/114
f 114/224/114 96/223/96 76/82/76 74/80/74
f 78/86/78 79/87/79 146/206/146 128/177/128
f 128/177/128 146/206/146 145/205/145 127/176/127
f 127/176/127 145/205/145 86/225/86
f 52/52/52 23/23/23 101/226/101 138/227/138
f 138/227/138 101/226/101 99/228/99 136/229/136
f 136/190/136 99/124/99 86/230/86
f 81/231/81 104/132/104 131/182/131
f 131/182/131 104/132/104 106/232/106 133/233/133
f 133/234/133 106/235/106 34/34/34 33/33/33
f 44/44/44 43/43/43 130/180/130 144/203/144
f 144/203/144 130/180/130 129/179/129 143/202/143
f 143/202/143 129/179/129 81/236/81
f 22/89/22 21/122/21 1/1/1 4/4/4
